<svg width="1920" height="1080" viewBox="0 0 1920 1080" fill="none" xmlns="http://www.w3.org/2000/svg">
<rect width="1920" height="1080" fill="#F2E8CF"/>
<g clip-path="url(#clip0_271_83)">
<path d="M1447 239.09C1447 239.504 1447.47 239.834 1448.06 239.834H1863.94C1864.52 239.834 1865 239.504 1865 239.09C1865 238.677 1864.53 238.347 1863.94 238.347H1448.06C1447.48 238.347 1447 238.677 1447 239.09Z" fill="#2F2E43"/>
<path d="M1794.3 240.142H1518.58V62.6163C1518.58 58.4188 1522 55 1526.2 55H1786.68C1790.88 55 1794.3 58.4144 1794.3 62.6163V240.142Z" fill="#2F2E41"/>
<path d="M1817.25 259H1494.95C1493.83 259 1492.92 258.309 1492.62 257.236C1492.32 256.166 1492.74 255.097 1493.69 254.521L1518.81 239.196H1794.39L1794.47 239.244L1818.55 254.543C1819.48 255.132 1819.88 256.197 1819.58 257.258C1819.27 258.314 1818.36 259 1817.26 259H1817.25Z" fill="#495D73"/>
<path d="M1786.75 66.3167H1525.81V228.513H1786.75V66.3167Z" fill="white"/>
<path d="M1796.81 249.258H1517.01L1530.84 238.039H1783.61L1796.81 249.258Z" fill="#2F2E41"/>
<path d="M1722.62 256.8H1589.95L1594.98 249.258H1717.59L1722.62 256.8Z" fill="#2F2E41"/>
<path d="M1734.49 130.455H1720.67C1719.46 130.455 1718.49 129.478 1718.49 128.277C1718.49 127.076 1719.46 126.099 1720.67 126.099H1734.49C1735.69 126.099 1736.67 127.076 1736.67 128.277C1736.67 129.478 1735.69 130.455 1734.49 130.455Z" fill="#DFDFDF"/>
<path d="M1750.38 130.455H1743.93C1742.73 130.455 1741.75 129.478 1741.75 128.277C1741.75 127.076 1742.73 126.099 1743.93 126.099H1750.38C1751.59 126.099 1752.56 127.076 1752.56 128.277C1752.56 129.478 1751.59 130.455 1750.38 130.455Z" fill="#DFDFDF"/>
<path d="M1596.1 132.118H1554.02C1551.88 132.118 1550.13 130.371 1550.13 128.224C1550.13 126.077 1551.88 124.33 1554.02 124.33H1596.1C1598.24 124.33 1599.99 126.077 1599.99 128.224C1599.99 130.371 1598.24 132.118 1596.1 132.118Z" fill="#3C5220"/>
<path d="M1573.29 142.506H1553.01C1551.71 142.506 1550.64 141.442 1550.64 140.13C1550.64 138.819 1551.7 137.755 1553.01 137.755H1573.29C1574.59 137.755 1575.66 138.819 1575.66 140.13C1575.66 141.442 1574.6 142.506 1573.29 142.506Z" fill="#DFDFDF"/>
<path d="M1685.06 151.883H1552.5C1551.2 151.883 1550.13 150.818 1550.13 149.507C1550.13 148.196 1551.19 147.131 1552.5 147.131H1685.06C1686.36 147.131 1687.43 148.196 1687.43 149.507C1687.43 150.818 1686.37 151.883 1685.06 151.883Z" fill="#DFDFDF"/>
<path d="M1673.65 158.219H1552.5C1551.2 158.219 1550.13 157.154 1550.13 155.843C1550.13 154.532 1551.19 153.467 1552.5 153.467H1673.65C1674.96 153.467 1676.03 154.532 1676.03 155.843C1676.03 157.154 1674.96 158.219 1673.65 158.219H1673.65Z" fill="#DFDFDF"/>
<path d="M1816.1 121.959L1809.63 124.088V114.76H1815.51L1816.1 121.959Z" fill="#F2A7AA"/>
<path d="M1810.43 117.343C1813.99 117.343 1816.88 114.453 1816.88 110.888C1816.88 107.323 1813.99 104.434 1810.43 104.434C1806.86 104.434 1803.97 107.323 1803.97 110.888C1803.97 114.453 1806.86 117.343 1810.43 117.343Z" fill="#F2A7AA"/>
<path d="M1812.2 110.25C1811.12 110.22 1810.41 109.124 1809.99 108.13C1809.57 107.131 1809.14 105.987 1808.14 105.573C1807.32 105.234 1805.87 107.509 1805.23 106.906C1804.55 106.277 1805.21 103.03 1805.92 102.449C1806.64 101.868 1807.62 101.754 1808.54 101.71C1810.79 101.604 1813.06 101.789 1815.26 102.247C1816.63 102.533 1818.03 102.96 1819.02 103.945C1820.26 105.195 1820.58 107.082 1820.67 108.847C1820.76 110.651 1820.66 112.543 1819.78 114.118C1818.91 115.698 1817.07 116.864 1815.31 116.459C1815.13 115.5 1815.31 114.518 1815.38 113.546C1815.44 112.574 1815.38 111.526 1814.78 110.752C1814.19 109.978 1812.92 109.674 1812.23 110.36" fill="#36344E"/>
<path d="M1820.14 112.486C1820.79 112.01 1821.56 111.619 1822.36 111.716C1823.22 111.821 1823.94 112.53 1824.16 113.366C1824.38 114.202 1824.14 115.126 1823.6 115.808C1823.07 116.49 1822.28 116.943 1821.45 117.172C1820.96 117.304 1820.43 117.356 1819.97 117.158C1819.29 116.868 1818.93 115.997 1819.19 115.31" fill="#36344E"/>
<path d="M1813.97 225.719H1807.9V234.325H1813.97V225.719Z" fill="#F2A7AA"/>
<path d="M1801.99 239.539C1801.35 239.539 1800.78 239.521 1800.35 239.482C1798.74 239.332 1797.2 238.144 1796.43 237.449C1796.08 237.137 1795.97 236.639 1796.15 236.208C1796.28 235.9 1796.54 235.671 1796.86 235.579L1801.12 234.36L1808.02 229.705L1808.09 229.841C1808.12 229.894 1808.79 231.113 1809.02 231.936C1809.11 232.248 1809.08 232.512 1808.96 232.715C1808.86 232.855 1808.74 232.935 1808.64 232.983C1808.76 233.115 1809.15 233.379 1810.36 233.573C1812.11 233.854 1812.49 232.028 1812.5 231.953L1812.51 231.892L1812.57 231.857C1813.4 231.315 1813.92 231.073 1814.1 231.126C1814.21 231.161 1814.39 231.214 1814.89 236.182C1814.94 236.336 1815.29 237.48 1815.06 238.571C1814.8 239.759 1809.6 239.35 1808.57 239.257C1808.53 239.257 1804.65 239.539 1801.98 239.539H1801.99Z" fill="#36344E"/>
<path d="M1831.24 218.95L1826.09 222.161L1830.65 229.464L1835.8 226.253L1831.24 218.95Z" fill="#F2A7AA"/>
<path d="M1824.41 238.36C1823.7 238.36 1823.04 238.276 1822.57 238.193C1822.12 238.113 1821.75 237.748 1821.68 237.286C1821.63 236.956 1821.72 236.626 1821.95 236.375L1824.92 233.089L1828.31 225.49L1828.44 225.565C1828.5 225.591 1829.72 226.269 1830.34 226.849C1830.58 227.069 1830.7 227.303 1830.7 227.545C1830.7 227.712 1830.63 227.848 1830.57 227.941C1830.75 227.985 1831.22 228.002 1832.34 227.527C1833.98 226.836 1833.33 225.089 1833.31 225.015L1833.28 224.957L1833.31 224.9C1833.74 223.998 1834.04 223.519 1834.22 223.47C1834.33 223.44 1834.52 223.391 1837.57 227.338C1837.69 227.443 1838.6 228.227 1838.97 229.283C1839.38 230.427 1834.76 232.829 1833.83 233.3C1833.8 233.322 1828.96 236.837 1826.98 237.836C1826.19 238.232 1825.26 238.355 1824.41 238.355V238.36Z" fill="#36344E"/>
<path d="M1818.44 153.726H1801.45L1799.9 169.531L1806.65 227.923H1815.32L1811.86 194.197L1825.93 224.645L1833.64 219.251L1822.65 190.827C1822.65 190.827 1826.57 166.064 1823.49 159.895C1820.4 153.726 1818.44 153.726 1818.44 153.726Z" fill="#36344E"/>
<path d="M1826.89 154.69H1799.9L1808 119.812H1819.75L1826.89 154.69Z" fill="#3C5220"/>
<path d="M1793.2 119.121C1792.77 117 1793.55 115.06 1794.96 114.791C1796.36 114.523 1797.85 116.023 1798.28 118.148C1798.46 118.993 1798.43 119.869 1798.19 120.705L1799.9 129.72L1795.49 130.415L1794.28 121.457C1793.73 120.775 1793.36 119.974 1793.2 119.121Z" fill="#F2A7AA"/>
<path d="M1819.47 119.812H1809.1L1802.11 133.79L1799.47 123.318L1793.68 123.934C1793.68 123.934 1795.05 144.399 1801.04 143.708C1807.03 143.017 1821.01 124.577 1819.47 119.816L1819.47 119.812Z" fill="#3C5220"/>
<path d="M1831.05 172.967C1831.48 175.088 1830.69 177.029 1829.29 177.297C1827.88 177.565 1826.4 176.065 1825.97 173.94C1825.79 173.095 1825.82 172.219 1826.05 171.383L1824.35 162.368L1828.76 161.673L1829.97 170.631C1830.52 171.313 1830.89 172.114 1831.05 172.967Z" fill="#F2A7AA"/>
<path d="M1813.56 119.811C1813.56 119.811 1819.45 119.561 1819.75 119.811C1821.36 121.127 1830.79 168.501 1830.79 168.501H1824.82L1813.55 119.811H1813.56Z" fill="#3C5220"/>
</g>
<defs>
<clipPath id="clip0_271_83">
<rect width="418" height="204" fill="white" transform="translate(1447 55)"/>
</clipPath>
</defs>
</svg>
