<svg width="611" height="426" viewBox="0 0 611 426" fill="none" xmlns="http://www.w3.org/2000/svg">
<g clip-path="url(#clip0_236_2)">
<path d="M161.617 41.4249L177.263 56.1744L170.084 66.2877L154.098 50.1051C153.404 50.058 152.706 49.9109 152.023 49.651C148.308 48.2375 146.443 44.0799 147.856 40.3649C149.27 36.6499 153.427 34.7842 157.142 36.1978C159.512 37.0992 161.123 39.118 161.617 41.4249Z" fill="#FFB6B6"/>
<path d="M110.333 412.494L121.62 412.493L126.989 368.957L110.331 368.958L110.333 412.494Z" fill="#FFB6B6"/>
<path d="M109.936 424.269L144.645 424.267V423.828C144.644 416.367 138.596 410.319 131.135 410.319L124.794 405.509L112.965 410.32L109.935 410.32L109.936 424.269Z" fill="#2F2E41"/>
<path d="M136.641 400.575L147.22 404.509L167.431 365.576L151.817 359.77L136.641 400.575Z" fill="#FFB6B6"/>
<path d="M132.164 411.472L164.696 423.572L164.849 423.16C167.449 416.167 163.889 408.39 156.896 405.789L152.63 399.07L139.866 399.455L137.026 398.398L132.164 411.472Z" fill="#2F2E41"/>
<path d="M158.018 187.135L180.925 317.417L159.45 398.306L139.406 390.432L142.27 383.99L137.975 375.399L144.417 332.449L144.427 305L126.521 250.128L121.51 340.324L129.385 385.421L127.902 398.306L104.33 401.17L107.194 391.864L92.161 346.766L95.0244 338.176L74.981 232.948L79.9918 199.304L158.018 187.135Z" fill="#2F2E41"/>
<path d="M90.3712 58.6419H118.909L127.595 72.9586L136.901 70.8111L141.616 72.9586L162.671 77.2536L156.228 115.193L154.797 158.859L155.512 177.471C163.039 182.97 161.096 190.548 159.427 199C159.427 199 87.5079 218.668 76.0545 212.386V204.269L82.855 149.911L57.8007 88.3491C56.7014 79.9211 65.6053 77.6442 73.907 75.8219L82.497 72.9586L90.3712 58.6419Z" fill="#567A35"/>
<path d="M156.228 82.2643L162.671 77.2535L177.329 82.2643L171.977 73.6743V69.5343L163.387 67.2318L162.671 60.7893L156.228 55.7361L166.778 43.5613L174.482 50.0545L179.135 50.0517L185.538 56.4548L208.494 87.7974C213.374 94.461 211.97 104.005 205.109 108.604C202.471 110.373 199.301 111.614 195.599 111.614H155.008L156.228 82.2643Z" fill="#567A35"/>
<path d="M107.34 54.164C119.185 54.164 128.787 44.5618 128.787 32.7169C128.787 20.872 119.185 11.2698 107.34 11.2698C95.4953 11.2698 85.8931 20.872 85.8931 32.7169C85.8931 44.5618 95.4953 54.164 107.34 54.164Z" fill="#FFB6B6"/>
<path d="M66.1141 224.57L65.6052 203.074L77.8444 201.07L77.5738 223.816C78.0276 224.342 78.4136 224.942 78.709 225.611C80.3153 229.246 78.67 233.496 75.0342 235.102C71.3984 236.709 67.1488 235.063 65.5425 231.428C64.5181 229.109 64.8207 226.543 66.1141 224.57Z" fill="#FFB6B6"/>
<path d="M65.7527 81.4799C60.9243 81.203 57.0204 85.3602 57.5999 90.1617L45.8869 155.426L44.0242 159.348L46.1604 161.554L46.6096 166.611L64.4434 213.711L86.7292 214.536L78.4269 116L72.6557 86.7219C71.635 83.7333 68.9057 81.6607 65.7527 81.4799Z" fill="#567A35"/>
<path d="M88.3675 213.893C88.5817 229.369 81.9249 232.675 71.1874 229.437C62.1032 226.698 54.0073 223.382 54.0073 213.893C54.0073 204.405 59.5295 190.373 71.1874 195.077C81.6182 189.35 93.6001 202.921 88.3675 213.893Z" fill="#FF6584"/>
<path d="M70.5688 195.463C69.1979 192.967 69.1038 189.919 70.3773 187.364C71.5118 185.088 73.7583 183.394 76.2345 182.861C77.5821 182.571 78.158 184.641 76.8054 184.932C74.8817 185.346 73.7557 193.26 72.8332 195.009C71.8407 196.89 71.4084 192.532 72.4231 194.379C73.089 195.591 71.2352 196.676 70.5688 195.463Z" fill="#3F3D56"/>
<path d="M174.268 27.06C174.268 36.5483 167.825 45.8421 157.088 42.6039C148.004 39.8643 136.427 41 145.427 25C133.427 19 145.43 3.53968 157.088 8.24374C167.519 2.51705 174.268 17.5717 174.268 27.06Z" fill="#FF6584"/>
<path d="M156.469 8.62938C152.291 9.60707 154.439 10.0279 156.278 4.53095C157.085 2.11945 159.659 0.5608 162.135 0.0277899C163.483 -0.26228 164.058 1.80745 162.706 2.09859C160.782 2.51267 159.129 3.72049 158.207 5.46895C157.214 7.34995 157.309 5.69851 158.324 7.54549C158.989 8.75747 157.136 9.84227 156.469 8.62938Z" fill="#3F3D56"/>
<path d="M54.2589 408.257C52.193 408.386 51.0512 405.82 52.6142 404.324L52.7697 403.705C52.7492 403.656 52.7286 403.606 52.7079 403.557C50.6187 398.575 43.538 398.61 41.4665 403.599C39.6279 408.027 37.2871 412.463 36.7107 417.145C36.4524 419.212 36.5686 421.317 37.0272 423.345C32.7191 413.935 30.4521 403.659 30.4521 393.324C30.4521 390.728 30.5942 388.131 30.8848 385.542C31.1238 383.423 31.4532 381.317 31.8795 379.231C34.1853 367.954 39.178 357.213 46.3796 348.242C49.8416 346.349 52.7287 343.391 54.4726 339.845C55.0991 338.566 55.59 337.19 55.8225 335.789C55.4285 335.841 54.3369 329.84 54.6341 329.472C54.085 328.639 53.1023 328.225 52.5027 327.412C49.5203 323.368 45.4115 324.074 43.2664 329.569C38.6842 331.882 38.6399 335.717 41.4515 339.406C43.2403 341.753 43.4861 344.928 45.0556 347.441C44.8941 347.647 44.7261 347.848 44.5647 348.054C41.6036 351.852 39.0426 355.934 36.8836 360.223C37.4938 355.457 36.593 349.715 35.0572 346.013C33.309 341.796 30.0323 338.244 27.1468 334.598C23.6808 330.219 16.5734 332.13 15.9628 337.682C15.9569 337.735 15.9511 337.789 15.9455 337.843C16.3741 338.085 16.7939 338.341 17.2041 338.613C19.5436 340.16 18.7351 343.787 15.963 344.214L15.9003 344.224C16.0553 345.768 16.3201 347.299 16.7076 348.803C13.0058 363.119 20.9977 368.333 32.4091 368.568C32.661 368.697 32.9064 368.826 33.1584 368.949C32.0022 372.204 31.0785 375.543 30.3939 378.928C29.7804 381.918 29.354 384.941 29.1151 387.977C28.8179 391.807 28.8438 395.656 29.1668 399.48L29.1474 399.344C28.3271 395.133 26.0407 391.2 22.7208 388.474C17.7752 384.411 10.788 382.915 5.45252 379.65C2.88419 378.078 -0.406926 380.109 0.0413144 383.087L0.0631344 383.229C0.857564 383.552 1.6326 383.927 2.38184 384.347C2.81044 384.588 3.23032 384.845 3.64048 385.117C5.97997 386.664 5.17144 390.29 2.39941 390.718L2.33659 390.728C2.29139 390.734 2.25262 390.741 2.20748 390.747C3.5703 393.983 5.46916 396.987 7.84602 399.577C10.1607 412.074 20.1021 413.259 30.7362 409.62H30.7427C31.9053 414.684 33.604 419.631 35.7871 424.346H53.8073C53.8719 424.146 53.9301 423.939 53.9882 423.739C52.3218 423.843 50.6425 423.746 49.0019 423.442C50.3389 421.802 51.6759 420.148 53.0129 418.508C53.0452 418.475 53.071 418.443 53.0969 418.411C53.775 417.571 54.4597 416.738 55.1378 415.898L55.1382 415.897C55.1807 413.32 54.8711 410.75 54.2589 408.257Z" fill="#C9D9A7"/>
<path d="M255.81 424.4C255.81 425.06 255.28 425.59 254.62 425.59H1.33014C0.670167 425.59 0.140137 425.06 0.140137 424.4C0.140137 423.74 0.670167 423.21 1.33014 423.21H254.62C255.28 423.21 255.81 423.74 255.81 424.4Z" fill="black"/>
<path d="M386.633 40.0303C386.633 38.9272 385.736 38.0303 384.633 38.0303H353.633C352.53 38.0303 351.633 38.9272 351.633 40.0303C351.633 41.1333 352.53 42.0303 353.633 42.0303H384.633C385.736 42.0303 386.633 41.1333 386.633 40.0303Z" fill="#495D73"/>
<path d="M437.633 40.2383C437.633 39.1353 436.736 38.2383 435.633 38.2383H404.633C403.53 38.2383 402.633 39.1353 402.633 40.2383C402.633 41.3413 403.53 42.2383 404.633 42.2383H435.633C436.736 42.2383 437.633 41.3413 437.633 40.2383Z" fill="#495D73"/>
<path d="M488.633 40.4463C488.633 39.3433 487.736 38.4463 486.633 38.4463H455.633C454.53 38.4463 453.633 39.3433 453.633 40.4463C453.633 41.5493 454.53 42.4463 455.633 42.4463H486.633C487.736 42.4463 488.633 41.5493 488.633 40.4463Z" fill="#495D73"/>
<path d="M437.633 85.2383C437.633 84.1353 436.736 83.2383 435.633 83.2383H404.633C403.53 83.2383 402.633 84.1353 402.633 85.2383C402.633 86.3413 403.53 87.2383 404.633 87.2383H435.633C436.736 87.2383 437.633 86.3413 437.633 85.2383Z" fill="#495D73"/>
<path d="M386.633 85.4463C386.633 84.3433 385.736 83.4463 384.633 83.4463H353.633C352.53 83.4463 351.633 84.3433 351.633 85.4463C351.633 86.5493 352.53 87.4463 353.633 87.4463H384.633C385.736 87.4463 386.633 86.5493 386.633 85.4463Z" fill="#495D73"/>
<path d="M437.633 131.238C437.633 130.135 436.736 129.238 435.633 129.238H404.633C403.53 129.238 402.633 130.135 402.633 131.238C402.633 132.341 403.53 133.238 404.633 133.238H435.633C436.736 133.238 437.633 132.341 437.633 131.238Z" fill="#495D73"/>
<path d="M488.633 131.446C488.633 130.343 487.736 129.446 486.633 129.446H455.633C454.53 129.446 453.633 130.343 453.633 131.446C453.633 132.549 454.53 133.446 455.633 133.446H486.633C487.736 133.446 488.633 132.549 488.633 131.446Z" fill="#495D73"/>
<path d="M284.633 131.03C284.633 129.927 283.736 129.03 282.633 129.03H251.633C250.53 129.03 249.633 129.927 249.633 131.03C249.633 132.133 250.53 133.03 251.633 133.03H282.633C283.736 133.03 284.633 132.133 284.633 131.03Z" fill="#495D73"/>
<path d="M335.633 131.238C335.633 130.135 334.736 129.238 333.633 129.238H302.633C301.53 129.238 300.633 130.135 300.633 131.238C300.633 132.341 301.53 133.238 302.633 133.238H333.633C334.736 133.238 335.633 132.341 335.633 131.238Z" fill="#495D73"/>
<path d="M386.633 131.446C386.633 130.343 385.736 129.446 384.633 129.446H353.633C352.53 129.446 351.633 130.343 351.633 131.446C351.633 132.549 352.53 133.446 353.633 133.446H384.633C385.736 133.446 386.633 132.549 386.633 131.446Z" fill="#495D73"/>
<path d="M369.387 30.4014C376.27 30.4014 381.85 24.9389 381.85 18.2007C381.85 11.4624 376.27 6 369.387 6C362.504 6 356.924 11.4624 356.924 18.2007C356.924 24.9389 362.504 30.4014 369.387 30.4014Z" fill="#8B98A6"/>
<path d="M368.468 23.2382L368.44 23.2377C368.109 23.2284 367.803 23.0556 367.625 22.7758L363.4 16.1508C363.103 15.685 363.24 15.0668 363.706 14.7699C364.171 14.4745 364.789 14.6098 365.087 15.0756L368.518 20.4559L374.964 11.4877C375.288 11.039 375.913 10.9379 376.36 11.2592C376.809 11.5814 376.911 12.2064 376.588 12.6547L369.28 22.8217C369.092 23.0834 368.789 23.2382 368.468 23.2382Z" fill="white"/>
<path d="M422.387 30.4014C429.27 30.4014 434.85 24.9389 434.85 18.2007C434.85 11.4624 429.27 6 422.387 6C415.504 6 409.924 11.4624 409.924 18.2007C409.924 24.9389 415.504 30.4014 422.387 30.4014Z" fill="#8B98A6"/>
<path d="M421.468 23.2382L421.44 23.2377C421.109 23.2284 420.803 23.0556 420.625 22.7758L416.4 16.1508C416.103 15.685 416.24 15.0668 416.706 14.7699C417.171 14.4745 417.789 14.6098 418.087 15.0756L421.518 20.4559L427.964 11.4877C428.288 11.039 428.913 10.9379 429.36 11.2592C429.809 11.5814 429.911 12.2064 429.588 12.6547L422.28 22.8217C422.092 23.0834 421.789 23.2382 421.468 23.2382Z" fill="white"/>
<path d="M471.387 29.4014C478.27 29.4014 483.85 23.9389 483.85 17.2007C483.85 10.4624 478.27 5 471.387 5C464.504 5 458.924 10.4624 458.924 17.2007C458.924 23.9389 464.504 29.4014 471.387 29.4014Z" fill="#8B98A6"/>
<path d="M470.468 22.2382L470.44 22.2377C470.109 22.2284 469.803 22.0556 469.625 21.7758L465.4 15.1508C465.103 14.685 465.24 14.0668 465.706 13.7699C466.171 13.4745 466.789 13.6098 467.087 14.0756L470.518 19.4559L476.964 10.4877C477.288 10.039 477.913 9.93788 478.36 10.2592C478.809 10.5814 478.911 11.2064 478.588 11.6547L471.28 21.8217C471.092 22.0834 470.789 22.2382 470.468 22.2382Z" fill="white"/>
<path d="M488.633 82.4463C488.633 81.3433 487.736 80.4463 486.633 80.4463H455.633C454.53 80.4463 453.633 81.3433 453.633 82.4463C453.633 83.5493 454.53 84.4463 455.633 84.4463H486.633C487.736 84.4463 488.633 83.5493 488.633 82.4463Z" fill="#495D73"/>
<path d="M471.387 71.4014C478.27 71.4014 483.85 65.9389 483.85 59.2007C483.85 52.4624 478.27 47 471.387 47C464.504 47 458.924 52.4624 458.924 59.2007C458.924 65.9389 464.504 71.4014 471.387 71.4014Z" fill="#8B98A6"/>
<path d="M470.468 64.2382L470.44 64.2377C470.109 64.2284 469.803 64.0556 469.625 63.7758L465.4 57.1508C465.103 56.685 465.24 56.0668 465.706 55.7699C466.171 55.4745 466.789 55.6098 467.087 56.0756L470.518 61.4559L476.964 52.4877C477.288 52.039 477.913 51.9379 478.36 52.2592C478.809 52.5814 478.911 53.2064 478.588 53.6547L471.28 63.8217C471.092 64.0834 470.789 64.2382 470.468 64.2382Z" fill="white"/>
<path d="M420.387 78.4014C427.27 78.4014 432.85 72.9389 432.85 66.2007C432.85 59.4624 427.27 54 420.387 54C413.504 54 407.924 59.4624 407.924 66.2007C407.924 72.9389 413.504 78.4014 420.387 78.4014Z" fill="#8B98A6"/>
<path d="M419.468 71.2382L419.44 71.2377C419.109 71.2284 418.803 71.0556 418.625 70.7758L414.4 64.1508C414.103 63.685 414.24 63.0668 414.706 62.7699C415.171 62.4745 415.789 62.6098 416.087 63.0756L419.518 68.4559L425.964 59.4877C426.288 59.039 426.913 58.9379 427.36 59.2592C427.809 59.5814 427.911 60.2064 427.588 60.6547L420.28 70.8217C420.092 71.0834 419.789 71.2382 419.468 71.2382Z" fill="white"/>
<path d="M370.387 78.4014C377.27 78.4014 382.85 72.9389 382.85 66.2007C382.85 59.4624 377.27 54 370.387 54C363.504 54 357.924 59.4624 357.924 66.2007C357.924 72.9389 363.504 78.4014 370.387 78.4014Z" fill="#8B98A6"/>
<path d="M369.468 71.2382L369.44 71.2377C369.109 71.2284 368.803 71.0556 368.625 70.7758L364.4 64.1508C364.103 63.685 364.24 63.0668 364.706 62.7699C365.171 62.4745 365.789 62.6098 366.087 63.0756L369.518 68.4559L375.964 59.4877C376.288 59.039 376.913 58.9379 377.36 59.2592C377.809 59.5814 377.911 60.2064 377.588 60.6547L370.28 70.8217C370.092 71.0834 369.789 71.2382 369.468 71.2382Z" fill="white"/>
<path d="M312.267 84.9643C312.267 82.6237 310.363 80.7205 308.023 80.7205H242.244C239.903 80.7205 238 82.6237 238 84.9643C238 87.3048 239.903 89.2081 242.244 89.2081H308.023C310.363 89.2081 312.267 87.3048 312.267 84.9643Z" fill="#3F3D56"/>
<path d="M275.671 70.0156C290.277 70.0156 302.117 58.4248 302.117 44.1269C302.117 29.829 290.277 18.2383 275.671 18.2383C261.066 18.2383 249.226 29.829 249.226 44.1269C249.226 58.4248 261.066 70.0156 275.671 70.0156Z" fill="#567A35"/>
<path d="M273.722 54.8162C273.702 54.8162 273.683 54.8162 273.663 54.8151C272.959 54.7954 272.311 54.4287 271.933 53.835L262.968 39.7774C262.339 38.789 262.629 37.4773 263.617 36.8473C264.604 36.2205 265.916 36.5075 266.547 37.4959L273.827 48.9125L287.506 29.8828C288.192 28.9306 289.519 28.7162 290.467 29.3979C291.419 30.0817 291.636 31.4079 290.952 32.359L275.445 53.9324C275.046 54.4877 274.404 54.8162 273.722 54.8162Z" fill="white"/>
<path d="M125.253 15.5249C126.553 16.1649 127.773 16.9649 128.873 17.8849C129.193 18.1549 126.163 18.515 126.463 18.795C124.313 22.255 133.273 26.5849 129.463 26.795C128.703 25.175 116.973 21.3849 115.703 20.1349C115.883 21.5749 120.633 23.365 120.463 24.795C116.193 24.5249 106.673 22.925 101.463 20.795C104.602 27.0501 104.626 31.9665 97.4634 33.7949C92.1027 33.7949 88.3601 39.1057 90.1631 44.1541L91.4634 47.7949L86.4634 42.7949C84.384 40.7155 80.3567 35.7961 79.0312 30.5439C78.0792 26.7719 78.8547 22.8195 80.8361 19.4716C80.9093 19.3479 80.9756 19.2285 81.0334 19.115C79.9034 19.6349 78.7234 20.0349 77.5134 20.305C77.4634 18.1249 85.9234 14.085 86.4634 12.7949C88.9734 6.78493 85.3134 6.79494 95.4634 6.79494C96.3384 6.21161 98.0962 7.20813 100.463 6.79494C104.82 6.03454 106.621 3.06163 112.03 4.19835C116.697 5.17931 121.239 6.61816 124.762 8.08597L126.463 8.79494C127.493 10.4449 127.913 11.9849 127.853 13.3849C127.763 13.3649 127.663 13.3449 127.573 13.3349C125.803 13.0849 126.993 15.1449 125.253 15.5249Z" fill="#2F2E41"/>
</g>
<defs>
<clipPath id="clip0_236_2">
<rect width="610.927" height="425.59" fill="white"/>
</clipPath>
</defs>
</svg>
